<svg aria-hidden="true" style="position: absolute; width: 0; height: 0; overflow: hidden;" version="1.1" xmlns="http://www.w3.org/2000/svg" xmlns:xlink="http://www.w3.org/1999/xlink">
  <defs>
    <symbol id="icon-logo" viewBox="0 0 208 32">
      <path fill="#3470ff" style="fill: var(--color1, #3470ff)" d="M202.142 15.29q-2.050 0-3.744 0.238c-1.38 0.211-2.614 0.54-3.79 0.986l0.126-0.042v15.056h-6.858v-22.388h5.084l1.024 2.64q2.048-1.654 4.020-2.364c1.209-0.449 2.605-0.708 4.062-0.708 0.027 0 0.054 0 0.081 0l-0.004-0zM184.598 31.29q-1.26 0.276-2.248 0.394-0.946 0.12-2.246 0.12-3.782 0-4.966-2.444c-0.954 0.726-2.046 1.349-3.216 1.819l-0.094 0.033c-1.039 0.399-2.24 0.631-3.496 0.631-0.046 0-0.092-0-0.137-0.001l0.007 0c-0.031 0-0.068 0.001-0.104 0.001-1.128 0-2.191-0.277-3.125-0.767l0.037 0.018c-0.914-0.47-1.661-1.154-2.193-1.987l-0.013-0.023c-0.494-0.772-0.788-1.713-0.788-2.724 0-0.013 0-0.026 0-0.038v0.002q0-2.52 1.26-3.98 1.302-1.496 3.468-2.364 2.168-0.906 6.582-2.168l1.182-0.354v-0.158q0-3.624-3.31-3.626-1.616 0-3.468 0.71t-4.256 2.286l-1.3-4.73c1.555-0.918 3.354-1.732 5.243-2.349l0.195-0.055c1.742-0.55 3.745-0.866 5.822-0.866 0.032 0 0.063 0 0.095 0l-0.005-0q3.78 0 5.792 2.050 2.050 2.048 2.050 7.014v7.488q0 0.868 0.354 1.26 0.354 0.356 1.144 0.356 0.75 0 1.496-0.198zM168.872 25.418q0 0.79 0.394 1.144 0.434 0.354 1.34 0.354 1.656 0 3.902-1.42v-4.176l-0.59 0.198q-2.958 1.064-4.020 1.89-1.026 0.79-1.026 2.010zM150.364 32q-4.886 0-8.276-1.892-3.39-1.928-5.084-5.084c-1.043-1.975-1.655-4.316-1.655-6.8 0-0.048 0-0.096 0.001-0.143l-0 0.007q0-3.704 1.734-6.856 1.772-3.154 5.24-5.044 3.468-1.892 8.356-1.892 4.572 0 8.040 1.772l-1.42 4.966c-0.863-0.453-1.87-0.855-2.921-1.153l-0.113-0.027q-1.576-0.476-3.586-0.474-2.56 0-4.454 1.18c-1.227 0.764-2.197 1.836-2.816 3.11l-0.020 0.044q-0.948 1.972-0.946 4.414 0 3.862 2.048 6.344 2.050 2.444 5.872 2.444 3.27 0 7.054-1.616l1.34 4.848q-1.614 0.828-3.86 1.34-2.248 0.51-4.534 0.512z"></path>
      <path fill="#101828" style="fill: var(--color2, #101828)" d="M123.568 0h6.856v31.528h-6.856zM120.288 31.29q-1.26 0.276-2.246 0.394-0.948 0.12-2.246 0.12-3.786 0-4.966-2.444c-0.954 0.726-2.046 1.349-3.216 1.819l-0.094 0.033c-1.039 0.399-2.24 0.631-3.496 0.631-0.046 0-0.092-0-0.137-0.001l0.007 0c-0.031 0-0.068 0.001-0.104 0.001-1.128 0-2.191-0.277-3.125-0.767l0.037 0.018c-0.915-0.47-1.662-1.154-2.195-1.987l-0.013-0.023c-0.494-0.772-0.788-1.713-0.788-2.724 0-0.013 0-0.026 0-0.038v0.002q0-2.52 1.26-3.98 1.3-1.496 3.47-2.364 2.168-0.906 6.58-2.168l1.184-0.354v-0.158q0-3.624-3.312-3.626-1.614 0-3.468 0.71-1.85 0.71-4.256 2.286l-1.3-4.73c1.556-0.918 3.355-1.733 5.245-2.349l0.195-0.055c1.742-0.55 3.745-0.866 5.822-0.866 0.031 0 0.062 0 0.093 0l-0.005-0q3.784 0 5.794 2.050 2.048 2.048 2.048 7.014v7.488q0 0.868 0.356 1.26 0.354 0.356 1.14 0.356 0.75 0 1.5-0.198zM104.564 25.418q0 0.79 0.394 1.144 0.432 0.354 1.34 0.354 1.656 0 3.9-1.42v-4.176l-0.59 0.198q-2.956 1.064-4.020 1.89-1.024 0.79-1.024 2.010zM95.248 30.070c-0.813 0.559-1.758 1.005-2.772 1.284l-0.066 0.016c-0.944 0.271-2.029 0.428-3.15 0.432h-0.002q-4.176 0-6.226-1.812-2.050-1.852-2.050-5.28v-10.72h-3.35v-2.876l4.218-1.696 1.892-6.028h4.098v5.75h6.304v4.848h-6.304v9.064q0 2.088 0.67 2.956 0.668 0.866 2.010 0.866 1.734 0 3.664-1.024zM66.38 8.67q4.374 0 6.030 2.326 1.694 2.324 1.694 6.7v13.832h-6.856v-12.968q0-2.76-0.67-3.824-0.63-1.064-2.484-1.064-2.010 0-4.098 1.34v16.514h-6.856v-22.386h5.082l0.71 1.854q3.862-2.326 7.448-2.326zM34.056 21.596q0.198 2.798 1.38 4.138 1.18 1.34 3.626 1.34c0.024 0 0.051 0 0.079 0 1.178 0 2.302-0.232 3.329-0.652l-0.059 0.021q1.576-0.672 3.586-1.97l1.852 4.334q-2.088 1.694-4.14 2.444-2.046 0.75-4.688 0.748-3.9 0-6.54-1.498-2.644-1.536-3.942-4.138-1.26-2.64-1.26-5.99 0-5.32 2.994-8.512t8.748-3.192q4.572 0 6.936 2.482 2.404 2.444 2.444 6.976 0 1.774-0.512 3.468zM41.742 17.142q0.040-0.234 0.040-0.63-0.040-1.616-0.868-2.444-0.828-0.866-2.286-0.866-3.468 0-4.334 3.94zM10.876 21.676h-3.782v9.852h-7.094v-26.8h10.72q5.754 0 8.394 1.972 2.64 1.928 2.64 6.108 0 5.44-3.98 7.29l7.526 11.43h-8.196zM7.094 16.748h3.626q2.088 0 2.994-0.866 0.946-0.868 0.946-2.68 0-1.89-0.906-2.72-0.906-0.826-3.034-0.826h-3.626z"></path>
    </symbol>
    <symbol id="icon-arrow-active" viewBox="0 0 32 32">
      <path d="M14.294 8.294c0.181-0.181 0.431-0.294 0.708-0.294s0.527 0.112 0.708 0.294l12 12c0.181 0.181 0.293 0.431 0.293 0.708 0 0.553-0.448 1.001-1.001 1.001-0.276 0-0.527-0.112-0.708-0.293v0l-11.294-11.294-11.292 11.294c-0.181 0.181-0.431 0.293-0.708 0.293-0.553 0-1.001-0.448-1.001-1.001 0-0.276 0.112-0.527 0.293-0.708v0z"></path>
    </symbol>
    <symbol id="icon-arrow-default" viewBox="0 0 32 32">
      <path d="M2.294 8.294c0.181-0.181 0.431-0.294 0.708-0.294s0.527 0.112 0.708 0.294l11.29 11.294 11.292-11.294c0.178-0.165 0.418-0.267 0.681-0.267 0.553 0 1.002 0.449 1.002 1.002 0 0.263-0.101 0.503-0.267 0.681l0.001-0.001-12 12c-0.181 0.181-0.431 0.294-0.708 0.294s-0.527-0.112-0.708-0.294l-12-12c-0.181-0.181-0.294-0.431-0.294-0.708s0.112-0.527 0.294-0.708l0-0z"></path>
    </symbol>
    <symbol id="icon-calendar" viewBox="0 0 32 32">
      <path d="M7 0c0.552 0 1 0.448 1 1v0 1h16v-1c0-0.552 0.448-1 1-1s1 0.448 1 1v0 1h2c2.209 0 4 1.791 4 4v0 22c0 2.209-1.791 4-4 4v0h-24c-2.209 0-4-1.791-4-4v0-22c0-2.209 1.791-4 4-4v0h2v-1c0-0.552 0.448-1 1-1v0zM4 4c-1.105 0-2 0.895-2 2v0 22c0 1.105 0.895 2 2 2v0h24c1.105 0 2-0.895 2-2v0-22c0-1.105-0.895-2-2-2v0z"></path>
      <path d="M5 8c0-0.552 0.448-1 1-1v0h20c0.552 0 1 0.448 1 1v0 2c0 0.552-0.448 1-1 1v0h-20c-0.552 0-1-0.448-1-1v0zM22 15c0-0.552 0.448-1 1-1v0h2c0.552 0 1 0.448 1 1v0 2c0 0.552-0.448 1-1 1v0h-2c-0.552 0-1-0.448-1-1v0zM16 15c0-0.552 0.448-1 1-1v0h2c0.552 0 1 0.448 1 1v0 2c0 0.552-0.448 1-1 1v0h-2c-0.552 0-1-0.448-1-1v0zM6 21c0-0.552 0.448-1 1-1v0h2c0.552 0 1 0.448 1 1v0 2c0 0.552-0.448 1-1 1v0h-2c-0.552 0-1-0.448-1-1v0zM12 21c0-0.552 0.448-1 1-1v0h2c0.552 0 1 0.448 1 1v0 2c0 0.552-0.448 1-1 1v0h-2c-0.552 0-1-0.448-1-1v0z"></path>
    </symbol>
    <symbol id="icon-car" viewBox="0 0 32 32">
      <path d="M8 18c0 1.105-0.895 2-2 2s-2-0.895-2-2v0c0-1.105 0.895-2 2-2s2 0.895 2 2v0zM28 18c0 1.105-0.895 2-2 2s-2-0.895-2-2v0c0-1.105 0.895-2 2-2s2 0.895 2 2v0zM12 16c-1.105 0-2 0.895-2 2s0.895 2 2 2v0h8c1.105 0 2-0.895 2-2s-0.895-2-2-2v0zM9.724 8.552l-1.912 3.828c-0.064 0.13-0.102 0.283-0.102 0.445 0 0.563 0.457 1.020 1.020 1.020 0.027 0 0.053-0.001 0.080-0.003l-0.003 0c1.82-0.146 4.7-0.34 7.194-0.34s5.376 0.194 7.194 0.34c0.023 0.002 0.049 0.003 0.076 0.003 0.563 0 1.020-0.457 1.020-1.020 0-0.162-0.038-0.315-0.105-0.451l0.003 0.006-1.912-3.826c-0.167-0.331-0.505-0.554-0.894-0.554h-10.764c-0.389 0-0.726 0.222-0.891 0.546l-0.003 0.006z"></path>
      <path d="M5.040 7.030c0.785-1.797 2.546-3.030 4.596-3.030 0.002 0 0.003 0 0.005 0h12.724c2 0 3.808 1.192 4.596 3.030l1.584 3.696c0.15 0.35 0.42 0.638 0.76 0.808 1 0.5 1.71 1.43 1.93 2.524l0.67 3.358q0.1 0.484 0.098 0.98v0.826c0 1.628-0.78 3.086-2 3.994v3.784c0 0.552-0.448 1-1 1v0h-4c-0.552 0-1-0.448-1-1v0-2.676c-2.584 0.096-5.49 0.176-8 0.176s-5.416-0.080-8-0.176v2.676c0 0.552-0.448 1-1 1v0h-4c-0.552 0-1-0.448-1-1v0-3.784c-1.22-0.908-2-2.366-2-3.994v-0.826c0-0.347 0.036-0.686 0.104-1.012l-0.006 0.032 0.67-3.36c0.22-1.092 0.93-2.024 1.928-2.522 0.342-0.172 0.609-0.454 0.758-0.798l0.004-0.010 1.584-3.696zM9.64 6c-1.23 0-2.288 0.741-2.75 1.801l-0.008 0.019-1.584 3.694c-0.344 0.792-0.94 1.421-1.685 1.799l-0.021 0.009c-0.441 0.222-0.761 0.63-0.858 1.118l-0.002 0.010-0.672 3.358c-0.038 0.177-0.059 0.38-0.060 0.587v0.826c0 1.592 1.24 2.896 2.816 2.968 3.11 0.14 7.572 0.31 11.184 0.31s8.074-0.168 11.184-0.31c1.572-0.079 2.816-1.372 2.816-2.956 0-0.004 0-0.008-0-0.012v0.001-0.826q0-0.296-0.060-0.588l-0.67-3.36c-0.1-0.497-0.419-0.904-0.851-1.122l-0.009-0.004c-0.766-0.387-1.362-1.016-1.697-1.785l-0.009-0.023-1.584-3.696c-0.471-1.078-1.528-1.818-2.757-1.818-0.001 0-0.002 0-0.003 0h0z"></path>
    </symbol>
    <symbol id="icon-check-circle" viewBox="0 0 32 32">
      <path d="M16 30c-7.732 0-14-6.268-14-14s6.268-14 14-14v0c7.732 0 14 6.268 14 14s-6.268 14-14 14v0zM16 32c8.837 0 16.001-7.164 16.001-16.001s-7.164-16.001-16.001-16.001v0c-8.837 0-16.001 7.164-16.001 16.001s7.164 16.001 16.001 16.001v0z"></path>
      <path d="M21.94 9.94l-0.040 0.044-6.946 8.85-4.186-4.188c-0.267-0.249-0.627-0.403-1.023-0.403-0.828 0-1.5 0.672-1.5 1.5 0 0.396 0.153 0.755 0.403 1.023l-0.001-0.001 5.292 5.294c0.271 0.271 0.646 0.438 1.060 0.438 0.433 0 0.824-0.184 1.097-0.477l0.001-0.001 7.984-9.98c0.256-0.269 0.414-0.633 0.414-1.035 0-0.828-0.672-1.5-1.5-1.5-0.412 0-0.785 0.166-1.056 0.435l0-0z"></path>
    </symbol>
    <symbol id="icon-favourite-active" viewBox="0 0 32 32">
      <path d="M16 2.628c8.876-9.124 31.068 6.842 0 27.372-31.068-20.528-8.876-36.496 0-27.372z"></path>
    </symbol>
    <symbol id="icon-favourite-default" viewBox="0 0 32 32">
      <path d="M16 5.496l-1.434-1.474c-3.366-3.46-9.54-2.266-11.766 2.084-1.046 2.046-1.282 5 0.628 8.77 1.84 3.63 5.668 7.978 12.572 12.714 6.904-4.736 10.73-9.084 12.572-12.714 1.91-3.772 1.676-6.724 0.628-8.77-2.228-4.35-8.4-5.546-11.766-2.086zM16 30c-30.666-20.264-9.442-36.080-0.352-27.714q0.18 0.166 0.352 0.342c0.112-0.118 0.227-0.229 0.346-0.335l0.006-0.005c9.088-8.372 30.314 7.446-0.352 27.712z"></path>
    </symbol>
    <symbol id="icon-fuel-pump" viewBox="0 0 32 32">
      <path d="M6 5c0-0.552 0.448-1 1-1v0h10c0.552 0 1 0.448 1 1v0 10c0 0.552-0.448 1-1 1v0h-10c-0.552 0-1-0.448-1-1v0z"></path>
      <path d="M2 4c0-2.209 1.791-4 4-4v0h12c2.209 0 4 1.791 4 4v0 16c2.209 0 4 1.791 4 4v0 1c0 0.552 0.448 1 1 1s1-0.448 1-1v0-9h-1c-0.552 0-1-0.448-1-1v0-6.25c0-0.552 0.448-1 1-1v0h2.99c-0.022-0.952-0.106-1.788-0.402-2.444-0.163-0.387-0.436-0.701-0.78-0.911l-0.008-0.005c-0.368-0.22-0.928-0.39-1.8-0.39-0.552 0-1-0.448-1-1s0.448-1 1-1v0q1.692-0.004 2.824 0.672c0.766 0.456 1.268 1.102 1.588 1.814 0.59 1.31 0.588 2.93 0.588 4.162v6.35c0 0.001 0 0.001 0 0.002 0 0.552-0.448 1-1 1 0 0 0 0 0 0h-1v9c0 1.657-1.343 3-3 3s-3-1.343-3-3v0-1c0-1.105-0.895-2-2-2v0 8h1c0.552 0 1 0.448 1 1s-0.448 1-1 1v0h-22c-0.552 0-1-0.448-1-1s0.448-1 1-1v0h1zM20 4c0-1.105-0.895-2-2-2v0h-12c-1.105 0-2 0.895-2 2v0 26h16z"></path>
    </symbol>
    <symbol id="icon-gear" viewBox="0 0 32 32">
      <path d="M16 9.508c-3.585 0-6.492 2.907-6.492 6.492s2.907 6.492 6.492 6.492v0c3.585 0 6.492-2.907 6.492-6.492s-2.907-6.492-6.492-6.492v0zM11.508 16c0-2.481 2.011-4.492 4.492-4.492s4.492 2.011 4.492 4.492v0c0 2.481-2.011 4.492-4.492 4.492s-4.492-2.011-4.492-4.492v0z"></path>
      <path d="M19.592 2.686c-1.054-3.58-6.13-3.58-7.184 0l-0.188 0.638c-0.22 0.73-0.886 1.253-1.675 1.253-0.306 0-0.594-0.079-0.844-0.217l0.009 0.005-0.584-0.32c-3.28-1.784-6.866 1.804-5.080 5.082l0.318 0.584c0.134 0.241 0.213 0.529 0.213 0.835 0 0.788-0.523 1.455-1.24 1.672l-0.012 0.003-0.638 0.188c-3.58 1.054-3.58 6.13 0 7.184l0.638 0.188c0.73 0.22 1.253 0.886 1.253 1.675 0 0.306-0.079 0.594-0.217 0.844l0.005-0.009-0.32 0.584c-1.784 3.28 1.802 6.868 5.082 5.080l0.584-0.318c0.241-0.134 0.529-0.213 0.835-0.213 0.788 0 1.455 0.523 1.672 1.24l0.003 0.012 0.188 0.638c1.054 3.58 6.13 3.58 7.184 0l0.188-0.638c0.22-0.73 0.886-1.253 1.675-1.253 0.306 0 0.594 0.079 0.844 0.217l-0.009-0.005 0.584 0.32c3.28 1.786 6.868-1.804 5.080-5.082l-0.318-0.584c-0.134-0.241-0.213-0.529-0.213-0.835 0-0.788 0.523-1.455 1.24-1.672l0.012-0.003 0.638-0.188c3.58-1.054 3.58-6.13 0-7.184l-0.638-0.188c-0.73-0.22-1.253-0.886-1.253-1.675 0-0.306 0.079-0.594 0.217-0.844l-0.005 0.009 0.32-0.584c1.786-3.28-1.804-6.866-5.082-5.080l-0.584 0.318c-0.241 0.134-0.529 0.213-0.835 0.213-0.788 0-1.455-0.523-1.672-1.24l-0.003-0.012zM14.326 3.252c0.492-1.67 2.856-1.67 3.348 0l0.188 0.638c0.472 1.566 1.902 2.687 3.593 2.687 0.657 0 1.275-0.169 1.812-0.467l-0.019 0.010 0.582-0.32c1.528-0.83 3.2 0.84 2.368 2.37l-0.318 0.584c-0.287 0.518-0.457 1.135-0.457 1.792 0 1.692 1.122 3.121 2.662 3.585l0.026 0.007 0.636 0.188c1.67 0.492 1.67 2.856 0 3.348l-0.638 0.188c-1.566 0.472-2.687 1.902-2.687 3.593 0 0.657 0.169 1.275 0.467 1.812l-0.010-0.019 0.32 0.582c0.83 1.528-0.84 3.2-2.37 2.368l-0.582-0.318c-0.518-0.288-1.136-0.458-1.794-0.458-1.692 0-3.122 1.122-3.586 2.663l-0.007 0.026-0.188 0.636c-0.492 1.67-2.856 1.67-3.348 0l-0.188-0.638c-0.473-1.566-1.902-2.686-3.593-2.686-0.657 0-1.274 0.169-1.81 0.466l0.019-0.010-0.584 0.32c-1.528 0.83-3.2-0.84-2.368-2.37l0.318-0.582c0.288-0.518 0.457-1.136 0.457-1.793 0-1.692-1.121-3.122-2.66-3.588l-0.027-0.007-0.638-0.188c-1.67-0.492-1.67-2.856 0-3.348l0.638-0.188c1.565-0.473 2.685-1.902 2.685-3.593 0-0.656-0.169-1.272-0.465-1.809l0.010 0.019-0.32-0.584c-0.83-1.528 0.84-3.2 2.37-2.368l0.584 0.318c0.517 0.287 1.134 0.456 1.791 0.456 1.691 0 3.12-1.12 3.586-2.659l0.007-0.027z"></path>
    </symbol>
    <symbol id="icon-location" viewBox="0 0 32 32">
      <path d="M23.060 16.762c-0.98 1.992-2.312 3.976-3.674 5.756-1.373 1.775-2.727 3.346-4.158 4.843l0.022-0.023c-1.409-1.474-2.763-3.045-4.034-4.683l-0.102-0.137c-1.36-1.78-2.692-3.764-3.676-5.756-0.992-2.012-1.562-3.896-1.562-5.512 0-5.178 4.197-9.375 9.375-9.375s9.375 4.197 9.375 9.375v0c0 1.616-0.572 3.5-1.564 5.512zM15.252 30s11.25-10.66 11.25-18.75c0-6.213-5.037-11.25-11.25-11.25s-11.25 5.037-11.25 11.25v0c-0.002 8.088 11.248 18.75 11.248 18.75z"></path>
      <path d="M15.25 15c-2.071 0-3.75-1.679-3.75-3.75s1.679-3.75 3.75-3.75v0c2.071 0 3.75 1.679 3.75 3.75s-1.679 3.75-3.75 3.75v0zM15.25 16.876c3.107 0 5.626-2.519 5.626-5.626s-2.519-5.626-5.626-5.626v0c-3.107 0-5.626 2.519-5.626 5.626s2.519 5.626 5.626 5.626v0z"></path>
    </symbol>
    <symbol id="icon-calendar-arrow-left" viewBox="0 0 32 32">
      <path d="M20.943 5.724c0.241 0.241 0.39 0.575 0.39 0.943s-0.149 0.701-0.39 0.943l-8.391 8.391 8.391 8.391c0.232 0.24 0.374 0.566 0.374 0.926 0 0.736-0.597 1.333-1.333 1.333-0.36 0-0.687-0.143-0.927-0.375l-9.333-9.333c-0.241-0.241-0.39-0.575-0.39-0.943s0.149-0.701 0.39-0.943l9.333-9.333c0.241-0.241 0.575-0.39 0.943-0.39s0.701 0.149 0.943 0.39v0z"></path>
    </symbol>
    <symbol id="icon-calendar-arrow-right" viewBox="0 0 32 32">
      <path d="M11.057 26.276c-0.241-0.241-0.39-0.575-0.39-0.943s0.149-0.701 0.39-0.943l8.391-8.391-8.391-8.391c-0.232-0.24-0.374-0.566-0.374-0.926 0-0.736 0.597-1.333 1.333-1.333 0.36 0 0.687 0.143 0.927 0.375l9.333 9.333c0.241 0.241 0.39 0.575 0.39 0.943s-0.149 0.701-0.39 0.943l-9.333 9.333c-0.241 0.241-0.575 0.39-0.943 0.39s-0.701-0.149-0.943-0.39v0z"></path>
    </symbol>
  </defs>
</svg>